<?xml version="1.0" encoding="utf-8"?>
<svg width="210mm" height="297mm" viewBox="0 0 181 181" version="1.1" id="svg5" xmlns="http://www.w3.org/2000/svg" xmlns:xlink="http://www.w3.org/1999/xlink" xmlns:bx="https://boxy-svg.com">
  <g id="layer1" style="display:inline;opacity:1" transform="matrix(1, 0, 0, 1, -19, -58.862625)">
    <g id="g8124" style="display:inline">
      <g id="use8640" style="display:inline" transform="matrix(1, 0, 0, 1, 0, 0)">
        <g style="display:inline" transform="matrix(1, 0, 0, 1, 0, 0)">
          <g style="display:inline" transform="matrix(1, 0, 0, 1, 0, 0)">
            <g style="display:inline" transform="matrix(1, 0, 0, 1, 0, 0)">
              <g style="display:inline" transform="matrix(1, 0, 0, 1, 0, 0)">
                <g style="display:inline" transform="matrix(1, 0, 0, 1, 0, 0)">
                  <g style="display:inline" transform="matrix(1, 0, 0, 1, 0, 0)">
                    <g style="display:inline" transform="matrix(1, 0, 0, 1, 0, 0)">
                      <g style="display:inline" transform="matrix(1, 0, 0, 1, 0, 0)">
                        <g style="display:inline" transform="matrix(1, 0, 0, 1, 0, 0)">
                          <g style="display:inline" transform="matrix(1, 0, 0, 1, 0, 0)">
                            <g style="display:inline" transform="matrix(1, 0, 0, 1, 0, 0)">
                              <g style="display:inline" transform="matrix(1, 0, 0, 1, 0, 0)">
                                <g style="display:inline" transform="matrix(1, 0, 0, 1, 0, 0)">
                                  <g style="display:inline" transform="matrix(1, 0, 0, 1, 0, 0)">
                                    <use x="0" y="0" width="100%" height="100%" style="stroke-width: 3px;" xlink:href="#g8124"/>
                                  </g>
                                </g>
                              </g>
                            </g>
                          </g>
                        </g>
                      </g>
                    </g>
                  </g>
                </g>
              </g>
            </g>
          </g>
        </g>
      </g>
    </g>
    <g id="g9257" style="display:inline;stroke-width:1;stroke-miterlimit:4;stroke-dasharray:none">
      <path id="rect846" style="display: inline; fill: none; fill-opacity: 0; stroke: rgb(5, 4, 2); stroke-linecap: round; stroke-linejoin: bevel; stroke-miterlimit: 4; stroke-dasharray: none; stroke-dashoffset: 12.3225; paint-order: fill markers; stop-color: rgb(0, 0, 0); stroke-width: 11.3386px;" d="m 195.06018,498.70145 211.6725,-211.6725 v 0 l 38.94529,38.9453" transform="scale(0.26458333)"/>
      <path id="path8716" style="display: inline; fill: none; fill-opacity: 0; stroke: rgb(5, 4, 2); stroke-linecap: round; stroke-linejoin: bevel; stroke-miterlimit: 4; stroke-dasharray: none; stroke-dashoffset: 12.3225; paint-order: fill markers; stop-color: rgb(0, 0, 0); stroke-width: 11.3386px;" d="M 333.90458,774.24937 126.70842,567.05321 166.45463,527.307" transform="scale(0.26458333)"/>
      <path id="path8712" style="display: inline; fill: none; fill-opacity: 0; stroke: rgb(5, 4, 2); stroke-linecap: round; stroke-linejoin: bevel; stroke-miterlimit: 4; stroke-dasharray: none; stroke-dashoffset: 12.3225; paint-order: fill markers; stop-color: rgb(0, 0, 0); stroke-width: 11.3386px;" d="M 615.55018,638.25995 406.73267,847.07747 370.81276,811.15755" transform="scale(0.26458333)"/>
      <path id="path8708" style="display: inline; fill: none; fill-opacity: 0; stroke: rgb(5, 4, 2); stroke-linecap: round; stroke-linejoin: bevel; stroke-miterlimit: 4; stroke-dasharray: none; stroke-dashoffset: 12.3225; paint-order: fill markers; stop-color: rgb(0, 0, 0); stroke-width: 11.3386px;" d="M 477.2092,357.50548 686.75693,567.05321 648.2278,605.58236" transform="scale(0.26458333)"/>
    </g>
    <path id="path2665" style="display: inline; fill: none; stroke: rgb(5, 4, 2); stroke-linecap: round; stroke-linejoin: bevel; stroke-miterlimit: 4; stroke-dasharray: none; stroke-dashoffset: 12.3225; stroke-opacity: 0.931505; paint-order: fill markers; stop-color: rgb(0, 0, 0); stroke-width: 11.3386px;" d="m 638.77047,540.79504 a 233.51879,233.51879 0 0 1 1.48101,26.25814 v 0 a 233.51879,233.51879 0 0 1 -147.0129,216.90495" transform="scale(0.26458333)"/>
    <path id="path11542" style="display: inline; fill: none; stroke: rgb(5, 4, 2); stroke-linecap: round; stroke-linejoin: bevel; stroke-miterlimit: 4; stroke-dasharray: none; stroke-dashoffset: 12.3225; stroke-opacity: 0.931505; paint-order: fill markers; stop-color: rgb(0, 0, 0); stroke-width: 11.3386px;" d="m 380.06838,335.06172 a 233.51879,233.51879 0 0 1 26.66431,-1.52732 233.51879,233.51879 0 0 1 216.87907,146.94805" transform="scale(0.26458333)"/>
    <path id="path11538" style="display: inline; fill: none; stroke: rgb(5, 4, 2); stroke-linecap: round; stroke-linejoin: bevel; stroke-miterlimit: 4; stroke-dasharray: none; stroke-dashoffset: 12.3225; stroke-opacity: 0.931505; paint-order: fill markers; stop-color: rgb(0, 0, 0); stroke-width: 11.3386px;" d="M 174.74148,593.71964 A 233.51879,233.51879 0 0 1 173.21391,567.05318 233.51879,233.51879 0 0 1 319.50744,350.43652" transform="scale(0.26458333)"/>
    <path id="path11534" style="display: inline; fill: none; stroke: rgb(5, 4, 2); stroke-linecap: round; stroke-linejoin: bevel; stroke-miterlimit: 4; stroke-dasharray: none; stroke-dashoffset: 12.3225; stroke-opacity: 0.931505; paint-order: fill markers; stop-color: rgb(0, 0, 0); stroke-width: 11.3386px;" d="M 432.80981,799.11138 A 233.51879,233.51879 0 0 1 406.73269,800.57197 233.51879,233.51879 0 0 1 190.1167,654.28009" transform="scale(0.26458333)"/>
  </g>
  <g id="layer3" style="display:none;stroke-width:2;stroke-miterlimit:4;stroke-dasharray:none" transform="matrix(1, 0, 0, 1, -19, -58.862625)">
    <path style="display:inline;fill:none;stroke:#000000;stroke-width:2;stroke-linecap:round;stroke-linejoin:round;stroke-miterlimit:4;stroke-dasharray:none;stroke-opacity:1" d="m 143.87559,104.87136 c -2.63223,16.41578 -15.68598,31.52997 -35.89797,44.99536" id="path5046"/>
    <path style="display:inline;fill:none;stroke:#000000;stroke-width:2;stroke-linecap:round;stroke-linejoin:miter;stroke-miterlimit:4;stroke-dasharray:none;stroke-opacity:1" d="m 129.44764,131.21703 c -0.21022,-7.33213 -3.65703,-3.9212 -2.14697,-12.21459 1.43106,-7.24228 9.48628,-11.72913 8.67363,-17.59769" id="path5628"/>
    <path style="fill:none;stroke:#000000;stroke-width:2;stroke-linecap:round;stroke-linejoin:miter;stroke-miterlimit:4;stroke-dasharray:none;stroke-opacity:1" d="m 108.49443,150.30654 c 0,0 -1.02307,-10.61675 0.59191,-14.38358 1.61499,-3.76683 3.94655,-8.36691 5.44127,-12.9976 1.49472,-4.63069 1.45987,-17.01094 -2.19608,-25.293783" id="path5933"/>
    <path style="fill:none;stroke:#000000;stroke-width:2;stroke-linecap:round;stroke-linejoin:miter;stroke-miterlimit:4;stroke-dasharray:none;stroke-opacity:1" d="m 114.91778,122.01658 c 0,0 0.53361,-6.80209 4.83598,-9.92355 4.30237,-3.12146 10.66888,-9.64857 10.65377,-12.153279" id="path6784"/>
    <path style="fill:none;stroke:#000000;stroke-width:2;stroke-linecap:round;stroke-linejoin:miter;stroke-miterlimit:4;stroke-dasharray:none;stroke-opacity:1" d="m 110.56528,135.08035 c 0,0 5.13893,-1.43376 7.64304,-4.18192 2.50411,-2.74817 4.51395,-6.2622 4.51395,-6.2622" id="path7473"/>
    <path style="fill:none;stroke:#000000;stroke-width:2;stroke-linecap:round;stroke-linejoin:miter;stroke-miterlimit:4;stroke-dasharray:none;stroke-opacity:1" d="m 111.46294,129.94116 c 0,0 -3.90853,-4.39444 -4.12032,-5.4929 -0.21179,-1.09846 -0.3169,-3.04637 -0.3169,-3.04637" id="path7944"/>
    <circle id="path8012" style="fill:#9d9d9d;stroke:#000000;stroke-width:2;stroke-miterlimit:4;stroke-dasharray:none" cx="107.31125" cy="140.31024" r="0.081868231"/>
    <circle id="path8014" style="fill:#9d9d9d;stroke:#000000;stroke-width:2;stroke-miterlimit:4;stroke-dasharray:none" cx="107.31125" cy="140.31024" r="0.081868231"/>
    <path style="fill:none;stroke:#000000;stroke-width:2;stroke-linecap:round;stroke-linejoin:miter;stroke-miterlimit:4;stroke-dasharray:none;stroke-opacity:1;paint-order:normal" d="m 108.22174,140.68278 c 0,0 -10.740296,-14.75193 -12.379766,-20.16828 -1.63947,-5.41635 -1.59748,-7.82396 -0.38394,-10.28238 1.21355,-2.45842 4.595756,-2.01846 5.026526,-3.56124 0.43077,-1.54278 0.0258,-1.45765 0.079,-3.08916 0.0533,-1.63151 2.90177,-5.641224 2.90177,-5.641224" id="path8198"/>
    <path style="fill:none;stroke:#000000;stroke-width:2;stroke-linecap:round;stroke-linejoin:miter;stroke-miterlimit:4;stroke-dasharray:none;stroke-opacity:1" d="m 94.512184,113.92343 c 0.0687,-0.34857 1.13946,-4.57734 0.10411,-7.01466 -1.03535,-2.43732 -3.09426,-5.07469 -3.5544,-8.03297" id="path9199"/>
    <path style="fill:none;stroke:#000000;stroke-width:2;stroke-linecap:round;stroke-linejoin:miter;stroke-miterlimit:4;stroke-dasharray:none;stroke-opacity:1" d="m 96.359974,120.57953 c 0,0 5.441576,-3.89749 7.057156,-5.94928 1.61558,-2.05179 2.87951,-5.75902 2.87951,-5.75902" id="path10164"/>
    <path style="fill:none;stroke:#000000;stroke-width:2;stroke-linecap:round;stroke-linejoin:miter;stroke-miterlimit:4;stroke-dasharray:none;stroke-opacity:1" d="m 108.35209,149.24344 c 0,0 -11.561486,-6.49654 -14.954926,-10.91562 -3.39343,-4.41907 -2.79769,-9.14603 -5.98151,-12.41911 -3.18381,-3.27308 -6.83052,-2.3018 -8.72325,-4.03675 -1.89273,-1.73494 -5.89414,-7.49092 -6.58109,-16.25048" id="path10369"/>
    <path style="fill:none;stroke:#000000;stroke-width:2;stroke-linecap:butt;stroke-linejoin:miter;stroke-miterlimit:4;stroke-dasharray:none;stroke-opacity:1" d="m 87.291294,125.65255 c 0,0 -2.3464,-4.26311 -1.17691,-8.84562 1.1695,-4.58251 -1.48981,-16.814124 -1.48981,-16.814124" id="path11372"/>
    <circle id="path11843" style="fill:#9d9d9d;stroke:#000000;stroke-width:2;stroke-miterlimit:4;stroke-dasharray:none" cx="114.21043" cy="145.00218" r="0.11577916"/>
    <circle id="path11845" style="fill:#9d9d9d;stroke:#000000;stroke-width:2;stroke-miterlimit:4;stroke-dasharray:none" cx="114.21043" cy="145.00218" r="0.11577916"/>
    <path style="fill:#000000;fill-opacity:1;stroke:none;stroke-width:2;stroke-linecap:butt;stroke-linejoin:miter;stroke-miterlimit:4;stroke-dasharray:none;stroke-opacity:1" d="m 101.74739,146.96881 c 0.65772,0.52063 0.95334,2.07881 0.96222,3.28743 0.009,1.20862 -0.15587,2.56486 -0.91049,2.96036 0.83152,0.0975 6.81209,0 6.81209,0 l 0.0768,-5.72428 c -2.004,-0.34076 -4.05493,-0.68817 -6.94061,-0.52351 z" id="path12204"/>
    <path style="display:inline;fill:#000000;fill-opacity:1;stroke:none;stroke-width:2;stroke-linecap:butt;stroke-linejoin:miter;stroke-miterlimit:4;stroke-dasharray:none;stroke-opacity:1" d="m 114.54864,147.11085 c -0.65772,0.52063 -0.95334,2.07881 -0.96222,3.28743 -0.009,1.20862 0.15587,2.56486 0.91049,2.96036 -0.83152,0.0975 -6.81209,0 -6.81209,0 l -0.0768,-5.72428 c 2.004,-0.34076 4.05493,-0.68817 6.94061,-0.52351 z" id="path12204-6"/>
    <path style="fill:#000000;fill-opacity:1;stroke:none;stroke-width:2;stroke-linecap:butt;stroke-linejoin:miter;stroke-miterlimit:4;stroke-dasharray:none;stroke-opacity:1" d="m 91.330254,130.63408 c 9.330706,11.52696 24.002646,13.40019 33.142116,4.39277 l -15.46109,14.66875 c -4.51544,-3.13522 -18.413166,-12.75061 -17.681026,-19.06152 z" id="path14270"/>
    <path style="fill:#000000;fill-opacity:1;stroke:none;stroke-width:2;stroke-linecap:butt;stroke-linejoin:miter;stroke-miterlimit:4;stroke-dasharray:none;stroke-opacity:1" d="m 95.247814,122.13303 c 3.64418,11.97705 9.871676,18.25714 6.890596,16.80965 4.4007,4.14819 12.35904,2.21891 16.23984,0.33853 -4.35923,1.94682 -7.56803,0.41412 -3.34257,-4.33348 0,0 -5.57917,-1.79763 -7.91531,-1.58433 -1.46037,0.13334 -8.742266,-9.09113 -9.541106,-12.07688 -0.38126,-1.42502 -2.33145,0.84651 -2.33145,0.84651 z" id="path15955"/>
    <path style="fill:#000000;fill-opacity:1;stroke:none;stroke-width:2;stroke-linecap:butt;stroke-linejoin:miter;stroke-miterlimit:4;stroke-dasharray:none;stroke-opacity:1" d="m 108.05031,128.19121 c 1.87528,2.64295 0.72571,6.47007 -2.21459,4.39171 -0.62277,1.75757 5.53041,2.49579 5.53041,2.49579 0,0 2.35503,-1.07334 2.62145,-2.94182 -1.41325,0.15076 -0.26776,-3.03159 -0.23731,-2.96275 0,0 -3.345,-0.83386 -5.69996,-0.98296 z" id="path17067"/>
  </g>
  <g id="layer5" style="display:inline" transform="matrix(1, 0, 0, 1, -19, -58.862625)">
    <path style="opacity:1;fill:#ffffff;fill-opacity:1;stroke:none;stroke-width:1;stroke-linecap:round;stroke-linejoin:round;stroke-miterlimit:4;stroke-dasharray:none;stroke-dashoffset:12.3225;stroke-opacity:0.0205836;paint-order:normal;stop-color:#000000" id="path20359" d="m 112.32343,181.62649 c -0.26046,0.30696 -0.55081,0.59086 -0.78136,0.92087 -1.67248,2.39396 -3.08452,5.71001 -3.49418,8.61185 -0.0773,0.54755 -0.0449,1.10505 -0.0673,1.65757 0.18281,0.52805 0.19076,1.15482 0.54844,1.58413 1.549,1.85924 2.96576,1.53422 5.26549,1.08812 1.04577,-0.20286 2.04644,-0.60718 3.0294,-1.01775 2.78295,-1.16242 3.60568,-1.84802 6.11358,-3.46484 0.77663,-0.64625 1.60834,-1.23153 2.3299,-1.93874 1.75734,-1.7224 3.24796,-4.02174 1.96486,-6.57209 -1.16613,-2.31786 -2.9385,-2.78942 -5.06937,-3.90148 -1.17537,-0.29216 -2.32699,-0.70619 -3.52609,-0.87649 -1.1991,-0.17031 -2.42309,-0.23224 -3.63071,-0.13995 -1.51188,0.11554 -3.03867,0.3046 -4.48491,0.76016 -2.01312,0.63412 -3.74751,2.2496 -4.40784,4.28964 -0.42556,1.31473 -0.25191,2.75226 -0.37787,4.12839 0.41932,1.51625 0.63422,3.10452 1.25797,4.54873 1.3681,3.16765 3.53127,5.91497 6.09514,8.19148 1.87624,1.66595 4.33083,3.21733 6.81286,3.84333 0.87809,0.22147 1.80675,0.12662 2.71012,0.18993 1.06355,-0.45103 2.36136,-0.54884 3.19067,-1.35309 1.91084,-1.85312 1.42616,-7.38209 1.23074,-8.93507 -0.6378,-5.06864 -2.60155,-10.71913 -4.67247,-15.32677 -1.07869,-2.4 -2.45256,-4.65611 -3.67883,-6.98416 -2.34302,-3.29776 -3.70395,-5.88487 -6.88084,-8.28914 -0.72609,-0.5495 -1.55177,-1.11959 -2.45976,-1.18827 -1.17509,-0.0889 -2.56165,-0.0256 -3.45687,0.74073 -1.2663,1.08402 -0.79609,4.96413 -0.75435,6.17542 0.30876,1.96168 0.43288,3.96148 0.9263,5.88503 1.26012,4.91245 3.41719,9.98909 6.05202,14.31306 2.29757,3.77052 5.21072,7.43644 8.77452,10.11648 1.13837,0.85607 2.50661,1.35344 3.75992,2.03017 1.03571,0.086 2.12984,0.6116 3.10713,0.25806 4.14756,-1.50042 4.30287,-4.03692 4.37715,-8.09256 0.11342,-6.19203 -1.12846,-12.00653 -2.85304,-17.92676 -0.89505,-3.0726 -2.12748,-6.0367 -3.19122,-9.05504 -2.18463,-4.61917 -3.37745,-7.94656 -6.40653,-11.88365 -0.5562,-0.72293 -1.11025,-1.97469 -2.01414,-1.85233 -5.2411,0.70949 -2.43585,4.84677 -1.27109,7.10962 1.04547,2.03112 2.37684,3.90184 3.56525,5.85276 3.52564,4.85196 4.15968,5.95421 7.88451,10.28215 0.77839,0.90443 1.45074,1.95501 2.4451,2.61465 0.22987,0.1525 0.31271,-0.45667 0.43558,-0.70364 0.40135,-0.80677 1.35564,-1.57977 1.13502,-2.45342 -0.28529,-1.12977 -1.59806,-1.69624 -2.39708,-2.54436 -2.17109,-2.13502 -3.51035,-3.50682 -5.75453,-5.51061 -0.58804,-0.52506 -1.1552,-1.08452 -1.81401,-1.51748 -0.12117,-0.0796 -0.33589,-0.0669 -0.43306,0.0408 -0.60165,0.66637 -1.40829,1.30223 -1.57587,2.18425 -0.0843,0.44361 0.65599,0.6207 0.98398,0.93105 1.55526,1.27941 3.08763,2.58988 4.68745,3.81424 0.28969,0.2217 0.54058,0.52596 0.88655,0.64163 0.10352,0.0346 0.0369,-0.22695 0.10916,-0.30873 0.61459,-0.69526 1.28925,-1.335 1.93388,-2.00249 -0.30602,-0.34628 -0.47727,-0.56733 -0.86453,-0.8639 -0.0498,-0.0381 -0.14042,-0.10831 -0.17879,-0.0587 -0.61793,0.79916 -1.58959,1.49889 -1.71033,2.50185 -0.0801,0.66555 0.77949,1.09307 1.21639,1.6015 0.71856,0.83621 1.49744,1.61863 2.24616,2.42794 2.16719,2.23275 4.3989,4.40151 6.58575,6.61471 0.32948,0.33345 0.63733,0.68855 0.97806,1.01049 0.0288,0.0272 0.1104,0.0627 0.11641,0.0236 0.0532,-0.34617 0.0275,-0.69993 0.0412,-1.0499 -0.39731,0.13242 -0.44438,-0.50877 -0.75313,-0.56454 -0.49796,-0.0899 -1.0061,-0.12045 -1.51184,-0.1374 -1.47105,-0.0493 -2.63513,-0.12482 -4.01479,0.28511 -0.47259,0.14042 -0.91136,0.3764 -1.36704,0.5646 -0.40355,0.29822 -0.84484,0.55119 -1.21066,0.89464 -1.58359,1.48679 -2.38338,3.6746 -2.91141,5.72294 -0.14564,0.56497 -0.24875,1.14007 -0.37313,1.7101 -0.19653,1.56639 -0.57352,3.95991 0.19344,5.45368 0.12159,0.23683 0.2869,0.44853 0.43036,0.67279 2.61136,0.29704 1.77273,0.83118 2.85935,-0.33477 0.0548,-0.0589 0.0999,-0.13044 0.16803,-0.17325 0.074,-0.0465 0.14451,0.11254 0.16733,0.1184 0.10237,0.0263 0.21139,10e-4 0.31708,0.002 1.35968,-0.17823 2.67685,-0.66991 3.79862,-1.46691 0.29545,-0.20992 0.5638,-0.45559 0.84569,-0.68338 1.4133,-1.24328 2.39233,-2.84097 3.05139,-4.58749 0.039,-0.13807 0.0812,-0.2753 0.11709,-0.41423 0.16482,-0.63875 -0.23315,0.52105 -0.5364,0.47376 -0.88039,-0.1373 -1.53909,-1.01725 -2.42312,-1.12869 -0.32548,-0.041 -0.45589,0.47498 -0.64682,0.74173 -0.48539,0.67814 -0.919,1.39188 -1.3785,2.08782 -1.56045,2.6952 -2.91752,5.5033 -4.17109,8.35243 -0.43009,0.97752 -1.11498,2.45193 -1.36919,3.55524 4.2726,-0.69079 0.67704,-0.73639 2.89087,0.59443 0.11633,0.0699 0.13472,-0.23599 0.1926,-0.35876 0.0834,-0.17691 0.14358,-0.36439 0.23082,-0.53943 0.31238,-0.62672 0.55924,-0.9677 0.95117,-1.577 1.04023,-1.67723 2.12024,-3.32798 3.35542,-4.86887 0.56004,-0.68762 1.21256,-1.27644 1.8886,-1.8445 0.66653,-0.55158 1.28896,-1.1527 1.94606,-1.71552 0.57557,-0.44745 1.11338,-0.937 1.75452,-1.28924 0.65637,-0.36096 1.29259,-0.76396 1.87502,-1.23566 0.0168,0.002 1.10902,-1.11379 0.54031,-0.52012 -0.10711,0.0607 -0.19821,0.18138 -0.32133,0.18213 -0.39842,0.002 -0.81175,-0.0276 -1.18269,-0.17299 -0.3255,-0.12761 -0.47743,-0.50377 -0.59592,-0.79401 -0.0281,-0.0688 -0.0135,-0.16723 -0.0741,-0.21027 -0.0376,-0.0267 -0.0774,0.0501 -0.11606,0.0752 -0.77874,1.00276 -1.50869,2.04146 -2.29881,3.03561 -0.63555,0.80416 -1.36858,1.51879 -2.13488,2.1961 -0.83525,0.73549 -1.78089,1.32908 -2.72003,1.92051 -0.72295,0.44229 -1.44099,0.9123 -2.03893,1.51741 -0.74584,1.06224 -0.64742,0.76855 2.34499,2.33938 0.28799,0.15117 0.61855,-0.20347 0.91887,-0.32839 1.34783,-0.56067 2.3754,-1.24409 3.56541,-2.07261 1.26516,-0.96249 2.45045,-2.06481 3.26775,-3.44459 0.3643,-0.61502 0.41688,-0.84958 0.64756,-1.49307 0.0598,-0.19362 0.123,-0.38621 0.1793,-0.58087 0.32854,-1.13598 -0.0553,0.13619 0.20475,-0.79638 0.0233,-0.0836 0.0737,-0.32584 0.0959,-0.24197 0.007,0.0273 -0.0149,0.0545 -0.0224,0.0817 -0.0315,0.046 -0.2396,0.37216 -0.29396,0.29916 -0.6099,-0.81906 -0.94683,-1.82805 -1.60206,-2.61133 -0.11306,-0.13515 -0.35071,0.0378 -0.524,0.0697 -1.56767,0.28877 -1.69274,0.36956 -3.4779,0.85011 -0.93035,0.29987 -1.86672,0.58168 -2.79105,0.89962 -2.41024,0.82903 -3.60384,1.34227 -5.9855,2.22656 -2.41851,0.89798 -4.85325,1.75017 -7.29841,2.57215 -1.45887,0.39645 -2.91433,0.82265 -4.3976,1.12245 -0.27453,0.0555 -0.57295,0.0254 -0.8285,0.14002 0.45089,0.0814 0.48636,0.0268 0.12891,0.14665 -0.0381,0.0167 -0.0729,0.0535 -0.11432,0.05 -0.1506,-0.013 -0.29162,-0.0963 -0.44277,-0.0979 -1.69913,-0.0188 -0.81724,0.005 -1.82145,0.21307 -0.24267,0.0503 -1.00089,0.13062 -1.19388,0.15283 -0.28184,0.0282 -0.56273,0.0685 -0.84553,0.0845 -0.62627,0.0354 -1.79261,0.0236 -2.38105,0.0163 -0.40667,-0.005 -2.76199,-0.0485 -3.11681,-0.0705 -0.28958,-0.018 -0.57556,-0.0739 -0.86334,-0.11082 -2.82734,-0.1439 -5.658489,-0.35453 -8.491534,-0.3272 -1.46481,0.0141 -1.841325,0.0623 -3.225625,0.16553 -0.678082,0.0429 -1.3579,0.064 -2.034246,0.12877 -0.353327,0.0338 -0.919499,0.1721 -1.286902,0.26751 -0.284091,0.0738 -0.49513,0.15615 -0.785217,0.10984 0.215329,-5.3e-4 0.431467,0.0167 0.645988,-0.002 0.06698,-0.006 -0.133485,-0.019 -0.198265,-0.037 -0.110205,-0.0306 -0.217657,-0.0704 -0.325549,-0.10832 -0.610968,-0.21481 -1.218901,-0.39546 -1.845053,-0.56241 -0.806469,-0.21465 -1.645439,-0.30203 -2.422165,-0.61729 -0.553413,-0.34456 -1.132518,-0.64519 -1.683597,-0.99312 -0.620297,-0.40844 -1.199158,-0.87599 -1.795092,-1.31865 -0.335513,-0.219 -0.60733,-0.51353 -0.882764,-0.80098 -0.381656,-0.33928 -0.666297,-0.73558 -0.916289,-1.17652 -0.287583,-0.60641 -0.671232,-1.14123 -1.12704,-1.62962 -0.279451,-0.26348 -0.594442,-0.4826 -0.883124,-0.73561 -0.209957,-0.21259 -0.449154,-0.39895 -0.640757,-0.6289 -1.078762,-1.52657 -0.897599,-0.44651 -2.722954,1.48072 0.04979,0.0673 0.0934,0.13971 0.149376,0.20201 0.422177,0.46981 0.908293,0.88832 1.362241,1.3261 2.266826,2.18608 -1.135552,-1.07438 1.17824,1.14003 1.013389,0.98841 2.060789,1.9426 3.065129,2.94019 0.748115,0.74574 1.594985,1.38116 2.436376,2.01623 0.219194,0.21783 0.532665,0.34264 0.740659,0.57243 0.213349,0.38335 0.503899,0.70816 0.785831,1.04066 0.106185,0.22392 0.07602,0.0163 0.05385,0.0172 -0.0021,8e-5 0.0082,0.24632 0.01913,0.48594 0.03889,0.71492 0.272902,1.39084 0.491088,2.06528 0.153151,0.48879 0.02265,0.20374 0.122994,0.0367 0.210362,-0.35014 0.341445,-0.82632 0.712576,-0.99695 0.441407,-0.20295 0.971653,-5.3e-4 1.457481,-8e-4 -0.02236,-0.0439 -0.03899,-0.0913 -0.0671,-0.13173 -0.565801,-0.81457 0.03523,0.15538 -0.613582,-0.85742 -0.37842,-0.59072 -0.713486,-1.20679 -1.041982,-1.82599 -0.420592,-0.92001 -0.744085,-1.87389 -1.204529,-2.77689 -0.308141,-0.59935 -0.733279,-1.11934 -1.14155,-1.65007 -0.226655,-0.24096 -0.373266,-0.58659 -0.649406,-0.77854 -0.10086,-0.19182 -2.813505,1.23455 -2.712646,1.42637 v 0 c 0.184565,0.37046 0.438179,0.6911 0.690102,1.01828 0.305485,0.3848 0.621533,0.76471 0.835832,1.21084 0.440573,0.89905 0.585467,1.89763 0.944795,2.82845 0.698651,1.57833 1.571707,3.03073 3.044148,4.00125 0.619167,0.0704 1.261353,0.39279 1.857502,0.21131 1.027327,-0.31275 1.0088,-1.667 0.853053,-2.45427 -0.138959,-0.5301 -0.363209,-1.03688 -0.43431,-1.58253 -0.09989,-0.68407 -0.174787,-1.38736 -0.602949,-1.96061 -0.147719,-0.1814 -0.294555,-0.3609 -0.465285,-0.52159 -0.04839,-0.0456 -0.116833,-0.0696 -0.157721,-0.12198 -0.03528,-0.0452 -0.05775,-0.0991 -0.08663,-0.14864 -0.290825,-0.45813 -0.617043,-0.89286 -1.016209,-1.26382 -0.711052,-0.66787 -1.491404,-1.25701 -2.185115,-1.94394 -1.014515,-1.00267 -1.947539,-2.08535 -2.973699,-3.07732 -1.057503,-1.01192 -2.143747,-2.03195 -3.432482,-2.74509 -1.710976,1.52753 -3.090058,1.51241 -1.922815,2.38321 0.262917,0.39358 0.529553,0.78009 0.898663,1.0853 0.260043,0.2365 0.528897,0.49822 0.851191,0.64616 0.259006,0.0873 0.442902,0.85082 0.598829,1.03614 0.374756,0.67635 0.804688,1.31608 1.427466,1.7903 0.329486,0.28643 0.617318,0.60388 0.891194,0.94415 0.623197,0.62136 1.322358,1.15781 2.057717,1.64054 0.586894,0.37486 1.224402,0.64293 1.808652,1.02171 0.902296,0.61818 1.896793,1.05466 2.974113,1.26989 0.584724,0.11717 1.184193,0.19489 1.765405,0.32643 0.122913,0.0278 0.854028,0.24991 0.982758,0.26448 0.41682,0.0472 0.837613,0.0476 1.256419,0.0714 0.588701,-0.0523 0.893284,-0.013 1.482283,0.0495 0.799275,0.0847 0.575236,-0.10571 0.840452,0.16529 3.852614,0.3296 7.717954,0.52124 11.58543,0.51143 3.27276,-0.0653 6.61229,0.0233 9.78474,-0.91542 1.29729,-0.43564 0.19438,-0.053 1.2296,-0.43941 0.0662,-0.0247 0.27109,-0.0584 0.201,-0.0676 -0.2645,-0.0349 -0.53495,0.0162 -0.80031,-0.0114 -0.0259,-0.003 -0.0155,-0.0496 -0.0233,-0.0745 0.10911,0.0536 0.21822,0.1072 0.32733,0.1608 0.99817,0.35751 0.47037,0.22596 2.16551,0.27116 2.06758,0.0551 4.12275,-0.28712 6.14026,-0.70057 0.7693,-0.16263 1.5439,-0.30194 2.3079,-0.48789 4.93323,-1.20073 9.70541,-3.09645 14.1521,-5.53826 0.58534,-0.35324 1.17742,-0.69555 1.75604,-1.05971 0.30751,-0.19353 0.59985,-0.41017 0.90145,-0.61278 0.10165,-0.0683 0.35106,-0.0851 0.30823,-0.19985 -0.35052,-0.93903 -0.79657,-1.85658 -1.38008,-2.67154 -0.0606,-0.0847 -0.65202,0.50674 -0.661,0.51521 -0.48843,0.66059 -0.77684,1.40954 -1.07415,2.17137 -0.82839,1.45088 -2.11196,2.26807 -3.43382,3.24311 -1.00268,0.69225 -2.02365,1.36077 -3.01449,2.06993 -0.19658,0.14069 -0.66918,0.2103 -0.58021,0.43506 0.37249,0.94094 1.24302,1.60575 1.74344,2.48547 0.67228,-0.32024 1.30172,-0.72469 1.94666,-1.09466 1.11356,-0.67537 2.1828,-1.42394 3.11409,-2.34072 0.79533,-0.80337 1.6019,-1.59561 2.39338,-2.40285 1.02403,-1.15777 1.9344,-2.42758 2.4845,-3.88424 0.14583,-0.51474 0.27038,-0.77053 0.20109,-1.32978 -0.0279,-0.22506 -0.082,-0.45564 -0.19674,-0.65127 -0.48647,-0.82983 -0.8765,-0.8663 -1.90404,-0.8944 -0.18253,-0.005 -0.34307,0.12518 -0.5146,0.18777 -0.37525,0.25953 -0.71444,0.56365 -1.10129,0.80606 -0.57877,0.34896 -1.14824,0.71319 -1.73494,1.04857 -0.74205,0.46836 -1.43433,1.00978 -2.10324,1.57715 -0.64777,0.54893 -1.24905,1.1482 -1.89726,1.69684 -0.79862,0.6436 -1.59151,1.29784 -2.33232,2.00778 -1.59437,1.58582 -2.95347,3.39802 -3.95854,5.4157 -0.45317,1.05126 -2.18205,4.65656 -0.51097,5.52416 0.7261,0.37699 1.63136,-0.12646 2.44704,-0.1897 0.26254,-0.19143 0.55111,-0.3515 0.78761,-0.5743 0.92069,-0.86735 1.70937,-2.00075 2.36279,-3.05778 1.68852,-2.73151 3.03523,-5.66608 4.03297,-8.71707 0.19845,-0.86142 0.43983,-1.71408 0.59535,-2.58428 0.0902,-0.50455 0.43676,-1.11323 0.14016,-1.53125 -1.86582,-2.62967 -2.4122,-1.86464 -3.3883,-0.39793 -0.73913,1.20659 -1.54509,2.37415 -2.56199,3.36848 -0.49687,0.40107 -0.563,0.49293 -1.12068,0.79425 -0.76906,0.41553 -1.64144,0.54998 -2.44776,0.87213 -0.68655,0.30008 -1.1092,0.50799 -1.60458,1.09063 -0.0706,0.083 -0.28356,0.21678 -0.18731,0.2678 0.10331,0.0548 0.17994,-0.14935 0.26991,-0.22402 0.68897,0.12941 1.37793,0.25882 2.0669,0.38824 0.0686,0.14116 0.10588,0.30251 0.20588,0.4235 0.0295,0.0357 0.0262,-0.0891 0.0326,-0.13493 0.0239,-0.17076 0.0363,-0.34295 0.0582,-0.51398 0.1472,-1.15252 0.36094,-2.29411 0.57638,-3.43552 0.2289,-1.2174 0.29149,-1.69966 0.61957,-2.87763 0.22453,-0.80616 0.52779,-1.98011 1.20151,-2.56346 0.16613,-0.14385 0.37722,-0.22553 0.56583,-0.33829 0.27749,-0.0666 0.54975,-0.16106 0.83248,-0.19984 0.96422,-0.13224 2.01061,-0.0536 2.97143,-0.0425 0.83263,0.01 1.67119,0.11157 2.49801,0.013 0.57136,-0.0681 1.09995,-0.33834 1.64993,-0.5075 0.42143,-0.58854 1.00647,-1.08921 1.2643,-1.7656 0.38454,-1.00881 -0.20504,-2.54383 -0.63849,-3.37276 -1.56467,-2.99226 -4.04407,-5.37269 -6.54199,-7.57615 -0.3674,-0.26799 -4.60181,-3.60135 -5.60156,-3.49649 -3.75359,0.39371 -3.79651,2.21029 -1.92254,3.56026 0.34964,0.25187 0.75079,0.42314 1.12619,0.63471 0.94765,-0.56179 2.0602,-0.91016 2.84295,-1.68538 0.24077,-0.23846 -2.1e-4,-0.69309 -0.1222,-1.00924 -0.32891,-0.8523 -1.46133,-2.05046 -2.03243,-2.59396 -1.57833,-1.50206 -2.07309,-1.71022 -3.90237,-2.91879 -0.74211,-0.32604 -1.42426,-1.09528 -2.22632,-0.97812 -2.30144,0.33618 -4.11077,1.30348 -3.41557,3.53933 0.61384,1.97417 2.64253,4.08989 3.9912,5.39398 1.09051,1.05447 2.30568,1.9719 3.45852,2.95784 1.21542,0.75593 2.25096,1.94869 3.64625,2.26779 2.63759,0.6032 6.32604,0.89943 6.12005,-2.749 -0.073,-1.29222 -0.71862,-2.50178 -1.29585,-3.66021 -2.14991,-4.31463 -4.45354,-6.91971 -7.40014,-10.79633 -1.57816,-1.72034 -3.04077,-3.55429 -4.73446,-5.16101 -2.457,-2.33085 -4.71301,-5.11211 -8.27728,-2.12661 -0.59793,0.50083 -0.0359,1.57102 0.10929,2.33736 0.65731,3.46946 2.61784,9.21634 3.56949,12.22952 2.43932,7.14193 3.51423,10.49616 6.21705,17.57013 0.90693,2.37367 1.90624,4.71105 2.84417,7.07265 0.4418,1.1124 0.56684,2.39914 1.29495,3.34912 0.34082,0.44467 1.1046,0.22983 1.61875,0.45242 0.23456,0.10155 -0.5083,-0.0545 -0.76245,-0.0817 -0.69288,-0.68258 -1.44777,-1.30747 -2.07863,-2.04774 -1.07844,-1.26546 -2.08241,-2.59545 -3.03791,-3.95613 -1.27052,-1.80929 -2.48898,-3.65703 -3.63558,-5.54729 -3.46916,-5.71917 -6.36009,-11.76119 -9.61385,-17.59966 -0.28009,-0.81855 -0.42113,-1.69882 -0.84028,-2.45564 -0.37047,-0.66893 -2.70168,-0.82469 -2.82093,-0.75194 -0.36666,0.22369 0.45961,0.72665 0.66174,1.10563 1.30177,2.44071 3.08415,6.1591 4.20037,8.43999 4.46292,9.32781 2.00766,4.12332 6.51754,13.85672 1.00119,2.16082 1.96287,4.34046 3.00648,6.48113 0.66663,1.36744 1.44213,2.67957 2.12274,4.04011 0.13882,0.27749 0.10494,0.65894 0.33312,0.86919 0.20654,0.19029 0.54669,0.12886 0.82004,0.1933 -0.40047,-0.0535 -0.82796,-0.006 -1.2014,-0.16045 -1.70731,-0.7049 -3.53582,-2.2577 -4.81794,-3.44461 -1.88807,-1.74787 -4.11178,-4.14836 -5.56455,-6.28233 -0.63555,-0.93355 -1.09185,-1.97728 -1.63778,-2.96591 -0.19553,-0.66643 -0.5677,-1.30503 -0.58659,-1.99929 -0.0377,-1.38575 1.33091,-1.45928 2.27591,-1.74496 2.3053,-0.69691 4.76667,-0.35355 7.10594,-0.0833 0.8194,0.16795 1.63739,0.34286 2.45818,0.50385 0.4744,0.093 0.95133,0.17264 1.42714,0.25821 0.16003,0.0288 0.49722,-0.0769 0.48036,0.0848 -0.0328,0.31457 -0.33559,0.54566 -0.56844,0.75969 -1.01003,0.92832 -2.81821,2.01824 -3.88745,2.71363 -2.98545,1.8636 -2.43986,1.52985 -5.42343,3.36526 -0.70721,0.43505 -1.51081,0.74173 -2.12353,1.30209 -0.18435,0.16859 0.19709,1.71223 -0.0479,1.56734 1.13587,-3.4358 2.62595,-6.77273 3.28834,-10.34952 0.0964,-0.20086 -2.74415,-1.56416 -2.84055,-1.36331 z"/>
    <path style="opacity:1;fill:#ffffff;fill-opacity:1;stroke:none;stroke-width:1;stroke-linecap:round;stroke-linejoin:round;stroke-miterlimit:4;stroke-dasharray:none;stroke-dashoffset:12.3225;stroke-opacity:0.0205836;paint-order:normal;stop-color:#000000" id="path21021" d="m 130.19593,101.81755 c 1.57232,1.91156 3.50722,3.50091 5.48451,4.97559 0.67801,0.46245 0.59046,0.42055 1.18504,0.77462 0.12359,0.0736 0.2632,0.1234 0.37425,0.21483 0.0788,0.0649 0.27401,0.33988 0.2966,0.36983 0.55285,0.65359 1.19282,1.22707 1.87599,1.74042 0.0359,0.0256 0.84289,0.58369 0.84513,0.58302 0.0156,-0.005 -0.003,-0.0322 -0.005,-0.0483 -0.0302,-0.082 -0.0784,-0.15942 -0.0906,-0.24594 -0.0898,-0.63962 -0.0813,-0.74702 0.26698,-1.32362 0.0598,-0.099 0.16372,-0.16337 0.24734,-0.24324 0.0187,-0.0179 0.0802,-0.0343 0.0595,-0.0498 -0.0224,-0.0168 -0.0498,0.0257 -0.0746,0.0385 -1.10862,0.79429 -0.84824,1.82216 -0.18576,2.75485 0.14547,0.11042 0.25027,0.37518 0.43438,0.44527 0.0121,0.005 10e-4,-0.0275 0.009,-0.0378 0.56952,-0.73514 1.23403,-1.40349 1.72104,-2.1957 0.0572,-0.0931 -0.20957,-0.0617 -0.31436,-0.0925 -0.1625,-0.0358 -0.32151,-0.0958 -0.4875,-0.10745 -0.58262,-0.0407 -1.16748,-0.0597 -1.75141,-0.049 -0.37448,0.007 -0.74652,0.0626 -1.11899,0.10192 -1.44464,0.15267 -2.8487,0.4153 -4.26958,0.71214 -1.98045,0.45105 -3.96335,0.9283 -5.83763,1.72431 -0.36773,0.20059 -0.22032,0.11248 -0.44843,0.25363 -0.19451,0.10059 1.22799,2.85136 1.4225,2.75077 v 0 c 0.35039,-0.0355 0.16129,-0.0187 0.56752,-0.048 1.98779,-0.28349 3.95263,-0.69365 5.92182,-1.08164 1.22371,-0.25553 1.58693,-0.31858 2.79378,-0.62095 0.3954,-0.0991 0.78606,-0.21639 1.18135,-0.3159 0.27055,-0.0681 0.58443,-0.0311 0.81584,-0.1869 0.10031,-0.0675 -0.39913,-0.0327 -0.33631,-0.13604 0.075,-0.12337 0.28836,-0.0148 0.43254,-0.0222 1.26015,-0.0601 0.48935,0.0449 2.35306,-2.15974 0.0422,-0.0499 -0.41126,-0.62837 -0.47578,-0.68221 -0.10883,-0.0915 -0.18199,-0.16764 -0.20359,-0.12622 -0.0222,0.0424 0.009,0.096 0.003,0.14354 -0.0934,0.77354 -0.0391,1.08259 -0.67124,1.53642 0.82001,-0.37261 1.08552,-1.39661 0.70375,-2.21316 -0.28995,-0.5065 -0.70746,-0.90791 -1.14727,-1.28748 -0.53831,-0.45094 -1.09883,-0.87548 -1.65978,-1.29759 -0.20014,-0.17253 -0.31375,-0.37785 -0.45677,-0.59947 -0.18969,-0.29394 -0.34174,-0.52771 -0.5713,-0.80489 -0.18561,-0.22413 -0.38584,-0.43573 -0.57876,-0.6536 -1.80575,-1.79954 -3.75727,-3.52349 -6.04367,-4.686621 -0.1553,-0.160287 -2.42212,2.036021 -2.26682,2.196301 z"/>
    <path style="opacity:1;fill:#ffffff;fill-opacity:1;stroke:none;stroke-width:1;stroke-linecap:round;stroke-linejoin:round;stroke-miterlimit:4;stroke-dasharray:none;stroke-dashoffset:12.3225;stroke-opacity:0.0205836;paint-order:normal;stop-color:#000000" id="path21023" d="m 83.01575,100.33416 c -1.896816,0.85203 -3.545633,2.14044 -5.09611,3.50582 -0.849482,0.71066 -1.540888,1.58804 -2.359382,2.32877 -0.660313,0.52454 -1.332011,1.02819 -1.942902,1.61118 -0.130508,0.11171 -0.923721,1.0071 -0.771242,1.18331 1.740326,2.01116 1.302782,2.07983 2.369249,1.77671 0.455398,-0.0675 0.800994,-0.37445 1.188707,-0.5973 0.671007,-0.34574 1.447911,-0.28378 2.178714,-0.3071 1.38658,-0.0225 0.171547,0.005 0.143253,-0.019 -0.0864,-0.073 0.225851,-0.0151 0.338124,-0.0289 0.06202,-0.008 0.122732,-0.0235 0.1841,-0.0353 0.206018,0.0855 1.41537,-2.82803 1.209349,-2.91354 v 0 c -0.965588,-0.34476 -1.98674,-0.30763 -3.000676,-0.22683 -0.252301,0.0384 -0.507725,0.0601 -0.756902,0.11532 -0.881226,0.19513 -1.707316,0.57932 -2.413431,1.13998 -0.05582,0.0434 -0.110178,0.0887 -0.167447,0.13019 -0.04641,0.0336 0.116846,-0.0482 0.139121,-0.10096 0.02037,-0.0482 -0.30848,0.0908 -0.339871,0.0655 -0.992907,0.10381 0.285261,-0.0541 1.802876,1.89188 0.09347,0.11985 -0.372641,0.56964 0.05598,0.26775 0.08443,-0.0595 0.166338,-0.12244 0.249507,-0.18366 0.686478,-0.5107 1.302637,-1.09288 1.937369,-1.66427 0.833729,-0.69514 1.745213,-1.29891 2.628107,-1.92816 1.605113,-1.15762 3.205387,-2.34278 4.63147,-3.71932 0.162065,-0.15612 -2.045898,-2.4481 -2.207964,-2.29197 z"/>
    <path style="fill:#ffffff;stroke-width:2;stroke-linecap:round;stroke-linejoin:round;stroke-miterlimit:4;stroke-dasharray:none;stroke-dashoffset:12.3225;stroke-opacity:0.0205836;stop-color:#000000" id="path23048" d="m 71.585571,108.33639 c -0.295029,0.62304 -0.355058,1.29982 -0.255006,1.97736 0.01799,0.1219 0.05128,0.24106 0.07692,0.36158 0.05703,0.28321 0.188328,0.53293 0.312552,0.78874 0.07457,0.15356 0.04915,0.43309 0.217065,0.46384 2.691725,0.49295 2.921013,-0.83152 2.733455,0.14929 -0.200697,0.52662 -1.440175,0.44332 -1.581573,0.43819 -0.793004,-0.0287 -0.204809,-0.21213 -0.571757,-0.35258 -0.03036,-0.0116 0.03338,0.0558 0.05006,0.0837 0.261864,0.35853 0.617085,0.65219 1.026187,0.83107 0.132466,0.0579 0.2726,0.0964 0.408897,0.14465 0.439307,-0.045 0.899465,0.006 1.317919,-0.13516 0.225343,-0.076 0.351515,-0.32049 0.52269,-0.48557 0.02101,-0.0203 0.07293,-0.0911 0.05306,-0.0697 -0.110879,0.11927 -0.173763,0.30657 -0.326298,0.36361 -1.061452,0.39693 -0.96684,0.37237 -1.588465,0.11725 -0.01307,-0.009 -0.02612,-0.0172 -0.03918,-0.0258 0.179073,0.12668 1.970593,-2.40578 1.791521,-2.53246 v 0 c -0.05646,-0.0287 -0.112914,-0.0574 -0.169371,-0.0861 -0.729453,-0.28862 -0.646099,-0.33857 -1.798127,0.0722 -0.177858,0.0634 -0.266123,0.26797 -0.40096,0.40016 -0.0019,0.002 -0.0011,-0.006 0.0011,-0.008 0.155043,-0.14336 0.267221,-0.3629 0.468669,-0.42622 0.389216,-0.12233 0.812999,-0.0696 1.219499,-0.10437 0.237556,0.11534 0.223885,0.087 0.385011,0.2206 0.0076,0.006 0.02658,0.0286 0.01842,0.0231 -0.08639,-0.0582 -0.16805,-0.1264 -0.254648,-0.18521 -0.266655,-0.24048 -0.688919,-0.7286 -1.047604,-0.7605 -1.049634,-0.0934 -1.408489,-0.0169 -1.998626,0.59504 -0.668308,0.96217 0.0034,-0.1299 2.510348,0.40882 0.110318,0.0237 0.134263,0.7173 0.321331,0.28045 0.03076,-0.0718 0.05308,-0.14699 0.07962,-0.22048 0.02471,-0.12861 0.05798,-0.25586 0.07412,-0.38582 0.09109,-0.73351 -0.01201,-1.46493 -0.361326,-2.12059 -0.01265,-0.22596 -3.208131,-0.0469 -3.195473,0.17901 z"/>
    <path style="fill:#ffffff;stroke-width:2;stroke-linecap:round;stroke-linejoin:round;stroke-miterlimit:4;stroke-dasharray:none;stroke-dashoffset:12.3225;stroke-opacity:0.0205836;stop-color:#000000" id="path23050" d="m 72.093433,188.55066 c -0.102944,0.18481 -0.314587,0.55841 -0.362085,0.69525 -0.08676,0.24994 -0.141576,0.51056 -0.189407,0.77077 -0.133504,0.72628 -0.167643,1.12135 -0.08779,1.85409 0.02808,0.25768 0.09757,0.50915 0.146352,0.76371 0.248382,0.64047 0.07956,0.39233 0.43526,0.7882 -0.0077,0.24872 3.509608,0.35812 3.517345,0.10941 v 0 c 0.371104,-0.50483 0.200702,-0.20829 0.464883,-0.91468 0.127556,-0.7349 0.21399,-0.97909 0.149813,-1.75909 -0.04307,-0.52351 -0.228619,-1.32346 -0.423231,-1.82506 -0.08786,-0.22646 -0.355314,-0.70349 -0.499562,-0.96608 -0.03419,-0.22285 -3.185766,0.26063 -3.151578,0.48348 z"/>
    <rect x="72.573" y="96.513" width="67.206" height="107.799" style="fill: rgb(255, 255, 255);"/>
    <path style="fill: none; fill-opacity: 0; stroke: rgb(5, 4, 2); stroke-dashoffset: 12.3225px; stroke-linecap: round; stroke-linejoin: bevel; stroke-width: 1.75px; paint-order: fill markers;" d="M 106.761 148.33 L 106.509 129.133" bx:d="M 106.761 148.33 R 106.509 129.133 1@c0e9ba23"/>
    <path style="fill: none; fill-opacity: 0; stroke: rgb(5, 4, 2); stroke-dashoffset: 12.3225px; stroke-linecap: round; stroke-linejoin: bevel; stroke-width: 1.75px; paint-order: fill markers;" d="M 109.656 148.267 L 108.398 140.525" bx:d="M 109.656 148.267 R 108.398 140.525 1@c52bbc23"/>
    <path style="fill: none; fill-opacity: 0; stroke: rgb(5, 4, 2); stroke-dashoffset: 12.3225px; stroke-linecap: round; stroke-linejoin: bevel; stroke-width: 1.75px; paint-order: fill markers;" d="M 110.412 147.512 L 107.453 128.126" bx:d="M 110.412 147.512 R 107.453 128.126 1@0255ce2b"/>
    <path style="fill: none; fill-opacity: 0; stroke: rgb(5, 4, 2); stroke-dashoffset: 12.3225px; stroke-linecap: round; stroke-linejoin: bevel; stroke-width: 1.75px; paint-order: fill markers;" d="M 105.125 147.323 L 106.825 126.364" bx:d="M 105.125 147.323 R 106.825 126.364 1@d678e8a7"/>
    <path style="fill: none; fill-opacity: 0; stroke: rgb(5, 4, 2); stroke-dashoffset: 12.3225px; stroke-linecap: round; stroke-linejoin: bevel; stroke-width: 1.75px; paint-order: fill markers;" d="M 108.461 143.288 L 114.755 134.917" bx:d="M 108.461 143.288 R 114.755 134.917 1@12dc066f"/>
    <path style="fill: none; fill-opacity: 0; stroke: rgb(5, 4, 2); stroke-dashoffset: 12.3225px; stroke-linecap: round; stroke-linejoin: bevel; stroke-width: 1.75px; paint-order: fill markers;" d="M 105.88 141.714 L 101.097 131.707" bx:d="M 105.88 141.714 R 101.097 131.707 1@c99fca51"/>
    <path style="fill: none; fill-opacity: 0; stroke: rgb(5, 4, 2); stroke-dashoffset: 12.3225px; stroke-linecap: round; stroke-linejoin: bevel; stroke-width: 1.75px; paint-order: fill markers;" d="M 106.761 148.33 L 106.509 129.133" bx:d="M 106.761 148.33 R 106.509 129.133 1@c0e9ba23"/>
    <path style="fill: none; fill-opacity: 0; stroke: rgb(5, 4, 2); stroke-dashoffset: 12.3225px; stroke-linecap: round; stroke-linejoin: bevel; stroke-width: 1.75px; paint-order: fill markers;" d="M 109.656 148.267 L 108.398 140.525" bx:d="M 109.656 148.267 R 108.398 140.525 1@c52bbc23"/>
    <path style="fill: none; fill-opacity: 0; stroke: rgb(5, 4, 2); stroke-dashoffset: 12.3225px; stroke-linecap: round; stroke-linejoin: bevel; stroke-width: 1.75px; paint-order: fill markers;" d="M 110.412 147.512 L 107.453 128.126" bx:d="M 110.412 147.512 R 107.453 128.126 1@0255ce2b"/>
    <path style="fill: none; fill-opacity: 0; stroke: rgb(5, 4, 2); stroke-dashoffset: 12.3225px; stroke-linecap: round; stroke-linejoin: bevel; stroke-width: 1.75px; paint-order: fill markers;" d="M 105.125 147.323 L 106.825 126.364" bx:d="M 105.125 147.323 R 106.825 126.364 1@d678e8a7"/>
    <path style="fill: none; fill-opacity: 0; stroke: rgb(5, 4, 2); stroke-dashoffset: 12.3225px; stroke-linecap: round; stroke-linejoin: bevel; stroke-width: 1.75px; paint-order: fill markers;" d="M 108.461 143.288 L 114.755 134.917" bx:d="M 108.461 143.288 R 114.755 134.917 1@12dc066f"/>
    <path style="fill: none; fill-opacity: 0; stroke: rgb(5, 4, 2); stroke-dashoffset: 12.3225px; stroke-linecap: round; stroke-linejoin: bevel; stroke-width: 1.75px; paint-order: fill markers;" d="M 105.88 141.714 L 101.097 131.707" bx:d="M 105.88 141.714 R 101.097 131.707 1@c99fca51"/>
  </g>
  <g id="layer2" style="display: inline; stroke-width: 2; stroke-miterlimit: 4; stroke-dasharray: none;" transform="matrix(1, 0, 0, 1, -19, -58.862625)">
    <path id="path3975" style="fill: rgb(255, 255, 255); fill-opacity: 1; stroke: rgb(5, 4, 2); stroke-linecap: round; stroke-linejoin: bevel; stroke-miterlimit: 4; stroke-dasharray: none; stroke-dashoffset: 12.3225; stroke-opacity: 0.995472; paint-order: fill markers; stop-color: rgb(0, 0, 0); stroke-width: 3px;" d="m 107.61469,88.308884 a 38.951605,12.142312 0 0 0 -38.951501,12.142906 38.951605,12.142312 0 0 0 2.698934,4.42649 38.951605,12.142312 0 0 1 0.265957,-0.22063 38.951605,12.142312 0 0 1 1.051904,-0.72335 38.951605,12.142312 0 0 1 1.201583,-0.70127 38.951605,12.142312 0 0 1 1.345891,-0.67443 38.951605,12.142312 0 0 1 1.484832,-0.64583 38.951605,12.142312 0 0 1 1.616617,-0.61422 38.951605,12.142312 0 0 1 1.742441,-0.58021 38.951605,12.142312 0 0 1 1.860512,-0.54326 38.951605,12.142312 0 0 1 1.970233,-0.503884 38.951605,12.142312 0 0 1 2.072206,-0.462757 38.951605,12.142312 0 0 1 2.164636,-0.419805 38.951605,12.142312 0 0 1 2.247523,-0.37449 38.951605,12.142312 0 0 1 2.32206,-0.327986 38.951605,12.142312 0 0 1 2.385271,-0.279682 38.951605,12.142312 0 0 1 2.43954,-0.230778 38.951605,12.142312 0 0 1 2.481871,-0.180085 38.951605,12.142312 0 0 1 2.51527,-0.129403 38.951605,12.142312 0 0 1 2.53675,-0.07812 38.951605,12.142312 0 0 1 2.54747,-0.02619 38.951605,12.142312 0 0 1 0.86168,0.0034 38.951605,12.142312 0 0 1 0.86108,0.0093 38.951605,12.142312 0 0 1 0.86048,0.01489 38.951605,12.142312 0 0 1 0.8593,0.02088 38.951605,12.142312 0 0 1 0.8575,0.02689 38.951605,12.142312 0 0 1 0.85512,0.03219 38.951605,12.142312 0 0 1 0.85274,0.03877 38.951605,12.142312 0 0 1 0.85035,0.04408 38.951605,12.142312 0 0 1 0.84618,0.05065 38.951605,12.142312 0 0 1 0.84259,0.05608 38.951605,12.142312 0 0 1 0.83903,0.06139 38.951605,12.142312 0 0 1 0.83364,0.06797 38.951605,12.142312 0 0 1 0.82948,0.07339 38.951605,12.142312 0 0 1 0.82352,0.0787 38.951605,12.142312 0 0 1 0.81755,0.0847 38.951605,12.142312 0 0 1 0.81158,0.0907 38.951605,12.142312 0 0 1 0.80505,0.09601 38.951605,12.142312 0 0 1 0.79787,0.101432 38.951605,12.142312 0 0 1 0.79072,0.10674 38.951605,12.142312 0 0 1 0.78236,0.112048 38.951605,12.142312 0 0 1 0.7752,0.118095 38.951605,12.142312 0 0 1 0.76568,0.122837 38.951605,12.142312 0 0 1 0.75733,0.128215 38.951605,12.142312 0 0 1 0.74778,0.13357 38.951605,12.142312 0 0 1 0.73825,0.138346 38.951605,12.142312 0 0 1 0.7281,0.143712 38.951605,12.142312 0 0 1 0.71797,0.14849 38.951605,12.142312 0 0 1 0.70722,0.153844 38.951605,12.142312 0 0 1 0.69591,0.15803 38.951605,12.142312 0 0 1 0.68457,0.163381 38.951605,12.142312 0 0 1 0.67325,0.167569 38.951605,12.142312 0 0 1 0.66071,0.172941 38.951605,12.142312 0 0 1 0.64821,0.17652 38.951605,12.142312 0 0 1 0.63567,0.18128 38.951605,12.142312 0 0 1 0.62255,0.18606 38.951605,12.142312 0 0 1 0.60944,0.18962 38.951605,12.142312 0 0 1 0.59572,0.1944 38.951605,12.142312 0 0 1 0.58201,0.19798 38.951605,12.142312 0 0 1 0.5677,0.20215 38.951605,12.142312 0 0 1 0.55278,0.20634 38.951605,12.142312 0 0 1 0.53848,0.20931 38.951605,12.142312 0 0 1 0.52357,0.21349 38.951605,12.142312 0 0 1 0.50806,0.21705 38.951605,12.142312 0 0 1 0.49255,0.22065 38.951605,12.142312 0 0 1 0.47647,0.22361 38.951605,12.142312 0 0 1 0.46095,0.2272 38.951605,12.142312 0 0 1 0.44425,0.23018 38.951605,12.142312 0 0 1 0.42816,0.23316 38.951605,12.142312 0 0 1 0.41147,0.23555 38.951605,12.142312 0 0 1 0.39475,0.23912 38.951605,12.142312 0 0 1 0.37747,0.24151 38.951605,12.142312 0 0 1 0.36018,0.24389 38.951605,12.142312 0 0 1 0.34288,0.24629 38.951605,12.142312 0 0 1 0.32559,0.24866 38.951605,12.142312 0 0 1 0.0322,0.0262 38.951605,12.142312 0 0 0 2.69059,-4.41875 38.951605,12.142312 0 0 0 -38.95149,-12.142885 z"/>
    <path id="path3975-2" style="fill: rgb(255, 255, 255); fill-opacity: 1; stroke: rgb(5, 4, 2); stroke-linecap: round; stroke-linejoin: bevel; stroke-miterlimit: 4; stroke-dasharray: none; stroke-dashoffset: 12.3225; stroke-opacity: 0.995472; paint-order: fill markers; stop-color: rgb(0, 0, 0); stroke-width: 3px;" d="m 107.61469,212.30399 a 38.951605,12.142312 0 0 0 38.95149,-12.14283 38.951605,12.142312 0 0 0 -2.69894,-4.42646 38.951605,12.142312 0 0 1 -0.26596,0.22063 38.951605,12.142312 0 0 1 -1.05189,0.72333 38.951605,12.142312 0 0 1 -1.20158,0.70128 38.951605,12.142312 0 0 1 -1.34589,0.67444 38.951605,12.142312 0 0 1 -1.48483,0.6458 38.951605,12.142312 0 0 1 -1.61663,0.6142 38.951605,12.142312 0 0 1 -1.74245,0.58023 38.951605,12.142312 0 0 1 -1.8605,0.54324 38.951605,12.142312 0 0 1 -1.97024,0.50388 38.951605,12.142312 0 0 1 -2.0722,0.46275 38.951605,12.142312 0 0 1 -2.16463,0.4198 38.951605,12.142312 0 0 1 -2.24754,0.3745 38.951605,12.142312 0 0 1 -2.32204,0.32798 38.951605,12.142312 0 0 1 -2.38528,0.27968 38.951605,12.142312 0 0 1 -2.43954,0.23077 38.951605,12.142312 0 0 1 -2.48187,0.18009 38.951605,12.142312 0 0 1 -2.51527,0.1294 38.951605,12.142312 0 0 1 -2.53674,0.0781 38.951605,12.142312 0 0 1 -2.54747,0.0262 38.951605,12.142312 0 0 1 -0.86168,-0.003 38.951605,12.142312 0 0 1 -0.86107,-0.009 38.951605,12.142312 0 0 1 -0.8605,-0.0149 38.951605,12.142312 0 0 1 -0.85929,-0.0209 38.951605,12.142312 0 0 1 -0.85751,-0.0268 38.951605,12.142312 0 0 1 -0.85512,-0.0322 38.951605,12.142312 0 0 1 -0.85273,-0.0387 38.951605,12.142312 0 0 1 -0.85035,-0.0441 38.951605,12.142312 0 0 1 -0.846184,-0.0506 38.951605,12.142312 0 0 1 -0.842588,-0.0561 38.951605,12.142312 0 0 1 -0.839019,-0.0614 38.951605,12.142312 0 0 1 -0.833657,-0.068 38.951605,12.142312 0 0 1 -0.829478,-0.0734 38.951605,12.142312 0 0 1 -0.823514,-0.0787 38.951605,12.142312 0 0 1 -0.817547,-0.0848 38.951605,12.142312 0 0 1 -0.811594,-0.0907 38.951605,12.142312 0 0 1 -0.805027,-0.096 38.951605,12.142312 0 0 1 -0.797873,-0.10143 38.951605,12.142312 0 0 1 -0.790718,-0.10675 38.951605,12.142312 0 0 1 -0.782375,-0.11204 38.951605,12.142312 0 0 1 -0.77521,-0.11807 38.951605,12.142312 0 0 1 -0.765678,-0.12285 38.951605,12.142312 0 0 1 -0.757322,-0.12821 38.951605,12.142312 0 0 1 -0.74778,-0.13358 38.951605,12.142312 0 0 1 -0.738237,-0.13835 38.951605,12.142312 0 0 1 -0.728105,-0.14371 38.951605,12.142312 0 0 1 -0.717974,-0.14849 38.951605,12.142312 0 0 1 -0.70723,-0.15385 38.951605,12.142312 0 0 1 -0.695898,-0.15802 38.951605,12.142312 0 0 1 -0.684579,-0.16339 38.951605,12.142312 0 0 1 -0.673247,-0.16757 38.951605,12.142312 0 0 1 -0.660715,-0.17292 38.951605,12.142312 0 0 1 -0.648194,-0.17651 38.951605,12.142312 0 0 1 -0.635674,-0.18129 38.951605,12.142312 0 0 1 -0.622565,-0.18605 38.951605,12.142312 0 0 1 -0.609434,-0.18963 38.951605,12.142312 0 0 1 -0.595724,-0.1944 38.951605,12.142312 0 0 1 -0.582004,-0.19797 38.951605,12.142312 0 0 1 -0.567695,-0.20216 38.951605,12.142312 0 0 1 -0.552786,-0.20633 38.951605,12.142312 0 0 1 -0.538478,-0.2093 38.951605,12.142312 0 0 1 -0.523557,-0.21349 38.951605,12.142312 0 0 1 -0.508071,-0.21704 38.951605,12.142312 0 0 1 -0.492562,-0.22064 38.951605,12.142312 0 0 1 -0.476452,-0.22363 38.951605,12.142312 0 0 1 -0.460955,-0.22719 38.951605,12.142312 0 0 1 -0.444258,-0.23017 38.951605,12.142312 0 0 1 -0.428148,-0.23317 38.951605,12.142312 0 0 1 -0.411462,-0.23554 38.951605,12.142312 0 0 1 -0.394765,-0.23913 38.951605,12.142312 0 0 1 -0.377468,-0.2415 38.951605,12.142312 0 0 1 -0.36018,-0.2439 38.951605,12.142312 0 0 1 -0.342885,-0.24628 38.951605,12.142312 0 0 1 -0.325586,-0.24866 38.951605,12.142312 0 0 1 -0.03219,-0.0262 38.951605,12.142312 0 0 0 -2.690585,4.4187 38.951605,12.142312 0 0 0 38.951487,12.14284 z"/>
    <path style="display: inline; fill: none; stroke: rgb(0, 0, 0); stroke-linecap: butt; stroke-linejoin: miter; stroke-miterlimit: 4; stroke-dasharray: none; stroke-opacity: 1; stroke-width: 3px;" d="m 71.36212,104.87828 c 0,0 -0.304505,23.6647 36.66926,45.01151 36.53104,21.09121 35.82815,45.83717 35.82815,45.83717 v 0 0 0" id="path4960"/>
    <path style="display: inline; fill: none; stroke: rgb(0, 0, 0); stroke-linecap: butt; stroke-linejoin: miter; stroke-miterlimit: 4; stroke-dasharray: none; stroke-opacity: 1; stroke-width: 3px;" d="m 71.353792,195.74161 c 0,0 -0.468921,-24.40528 36.677588,-45.85182 36.48044,-21.062 35.83588,-45.01151 35.83588,-45.01151 v 0 0" id="path4958"/>
  </g>
  <path style="fill: none; fill-opacity: 0; stroke: rgb(5, 4, 2); stroke-dashoffset: 12.3225px; stroke-linecap: round; stroke-linejoin: bevel; stroke-width: 1.75px; paint-order: fill markers;" d="M 64.213 55.043 C 67.135 56.317 60.014 53.815 68.417 58.222 C 73.165 60.804 79.196 61.264 80.869 69.131 C 82.984 76.467 88.925 81.012 88.925 80.791 L 89.15 90.742 L 89.15 80.921 C 90.222 82.231 102.163 69.889 106.402 62.732"/>
  <path style="fill: none; fill-opacity: 0; stroke: rgb(5, 4, 2); stroke-dashoffset: 12.3225px; stroke-linecap: round; stroke-linejoin: bevel; stroke-width: 1.75px; paint-order: fill markers;" d="M 95.496 42.497 C 92.776 48.436 94.615 50.27 92.86 57.35 C 91.296 64.193 89.213 63.128 88.059 69.354 C 88.54 74.503 89.248 84.969 89.15 85.067"/>
  <path style="fill: none; fill-opacity: 0; stroke: rgb(5, 4, 2); stroke-dashoffset: 12.3225px; stroke-linecap: round; stroke-linejoin: bevel; stroke-width: 1.75px; paint-order: fill markers;" d="M 57.783 46.064 C 60.705 47.338 60.014 53.815 68.417 58.222 C 73.165 60.804 79.196 61.264 80.869 69.131 C 82.984 76.467 88.925 81.012 88.925 80.791 L 89.15 90.742 L 89.15 80.921 C 90.222 82.231 102.163 69.889 106.402 62.732 C 110.195 55.319 116.309 51.251 115.726 45.634"/>
  <path style="fill: none; fill-opacity: 0; stroke: rgb(5, 4, 2); stroke-dashoffset: 12.3225px; stroke-linecap: round; stroke-linejoin: bevel; stroke-width: 1.75px; paint-order: fill markers;" d="M 92.579 58.554 C 92.579 58.554 96.25 50.829 98.198 48.101 C 99.651 46.066 102.681 43.259 102.681 43.259" bx:d="M 92.579 58.554 R 98.198 48.101 R 102.681 43.259 1@a4c549fd"/>
  <path style="fill: none; fill-opacity: 0; stroke: rgb(5, 4, 2); stroke-dashoffset: 12.3225px; stroke-linecap: round; stroke-linejoin: bevel; stroke-width: 1.75px; paint-order: fill markers;" d="M 78.803 64.414 C 78.803 64.414 77.396 59.599 77.051 56.56 C 76.588 52.477 76.958 42.034 76.958 42.034" bx:d="M 78.803 64.414 R 77.051 56.56 R 76.958 42.034 1@8a0b121e"/>
  <path style="fill: none; fill-opacity: 0; stroke: rgb(5, 4, 2); stroke-dashoffset: 12.3225px; stroke-linecap: round; stroke-linejoin: bevel; stroke-width: 1.75px; paint-order: fill markers;" d="M 103.758 66.55 C 103.758 66.55 110.938 64.092 112.958 61.95 C 114.659 60.146 115.833 55.242 115.833 55.242" bx:d="M 103.758 66.55 R 112.958 61.95 R 115.833 55.242 1@00288b28"/>
  <path style="fill: none; fill-opacity: 0; stroke: rgb(5, 4, 2); stroke-dashoffset: 12.3225px; stroke-linecap: round; stroke-linejoin: bevel; stroke-width: 1.75px; paint-order: fill markers;" d="M 96.283 74.791 C 96.283 74.791 93.879 68.825 94.367 66.166 C 94.852 63.525 99.158 58.883 99.158 58.883" bx:d="M 96.283 74.791 R 94.367 66.166 R 99.158 58.883 1@44beb361"/>
  <path style="fill: none; fill-opacity: 0; stroke: rgb(5, 4, 2); stroke-dashoffset: 12.3225px; stroke-linecap: round; stroke-linejoin: bevel; stroke-width: 1.75px; paint-order: fill markers;" d="M 82.311 72.479 C 82.311 72.479 75.8382926879337 70.94477469346114 73.686 69.412 C 71.9239325279168 68.15712772146566 69.853 64.621 69.853 64.621" bx:d="M 82.311 72.479 R 73.686 69.412 R 69.853 64.621 1@e88c3cf8"/>
  <path style="fill: none; fill-opacity: 0; stroke: rgb(5, 4, 2); stroke-dashoffset: 12.3225px; stroke-linecap: round; stroke-linejoin: bevel; stroke-width: 1.75px; paint-order: fill markers;" d="M 72.904 59.82 C 72.904 59.82 70.652 57.08 70.078 55.245 C 69.367 52.972 69.642 47 69.642 47" bx:d="M 72.904 59.82 R 70.078 55.245 R 69.642 47 1@f58f7747"/>
  <path style="fill: none; fill-opacity: 0; stroke: rgb(5, 4, 2); stroke-dashoffset: 12.3225px; stroke-linecap: round; stroke-linejoin: bevel; stroke-width: 1.75px; paint-order: fill markers;" d="M 108.55 56.583 C 108.55 56.583 103.772 53.643 102.991 51.983 C 102.422 50.773 102.991 48.15 102.991 48.15" bx:d="M 108.55 56.583 R 102.991 51.983 R 102.991 48.15 1@2a62e04b"/>
  <path style="fill: none; fill-opacity: 0; stroke: rgb(5, 4, 2); stroke-dashoffset: 12.3225px; stroke-linecap: round; stroke-linejoin: bevel; stroke-width: 1.75px; paint-order: fill markers;" d="M 87.821 69.194 C 87.821 69.194 87.897 63.709 86.894 61.597 C 85.956 59.624 82.262 56.779 82.262 56.779" bx:d="M 87.821 69.194 R 86.894 61.597 R 82.262 56.779 1@87f64a95"/>
  <path style="fill: none; fill-opacity: 0; stroke: rgb(5, 4, 2); stroke-dashoffset: 12.3225px; stroke-linecap: round; stroke-linejoin: bevel; stroke-width: 1.75px; paint-order: fill markers;" d="M 90.216 64.085 C 90.216 64.085 88.283 74.684 88.283 74.684 C 88.283 74.684 90.216 64.085 90.216 64.085 C 90.216 64.085 90.216 64.085 90.216 64.085" bx:d="M 90.216 64.085 R 88.283 74.684 R 90.216 64.085 Z 1@cab41857"/>
  <path style="fill: none; fill-opacity: 0; stroke: rgb(5, 4, 2); stroke-dashoffset: 12.3225px; stroke-linecap: round; stroke-linejoin: bevel; stroke-width: 1.75px; paint-order: fill markers;" d="M 86.338 76.321 C 86.338 76.321 84.93 73.957 83.981 72.392 C 82.563 70.054 78.636 63.668 78.636 63.668" bx:d="M 86.338 76.321 R 83.981 72.392 R 78.636 63.668 1@87b5d9b4"/>
  <path style="fill: none; fill-opacity: 0; stroke: rgb(5, 4, 2); stroke-dashoffset: 12.3225px; stroke-linecap: round; stroke-linejoin: bevel; stroke-width: 1.75px; paint-order: fill markers;" d="M 89.953 78.679 C 89.953 78.679 93.822 76.039 95.769 74.435 C 97.933 72.652 102.293 68.383 102.293 68.383" bx:d="M 89.953 78.679 R 95.769 74.435 R 102.293 68.383 1@a727a6bd"/>
  <path style="fill: none; fill-opacity: 0; stroke: rgb(5, 4, 2); stroke-dashoffset: 12.3225px; stroke-linecap: round; stroke-linejoin: bevel; stroke-width: 1.75px; paint-order: fill markers;" d="M 86.338 76.321 C 86.338 76.321 84.93 73.957 83.981 72.392 C 82.563 70.054 78.636 63.668 78.636 63.668" bx:d="M 86.338 76.321 R 83.981 72.392 R 78.636 63.668 1@87b5d9b4"/>
  <path style="fill: none; fill-opacity: 0; stroke: rgb(5, 4, 2); stroke-dashoffset: 12.3225px; stroke-linecap: round; stroke-linejoin: bevel; stroke-width: 1.75px; paint-order: fill markers;" d="M 89.953 78.679 C 89.953 78.679 93.822 76.039 95.769 74.435 C 97.933 72.652 102.293 68.383 102.293 68.383" bx:d="M 89.953 78.679 R 95.769 74.435 R 102.293 68.383 1@a727a6bd"/>
  <path style="fill: none; fill-opacity: 0; stroke: rgb(5, 4, 2); stroke-dashoffset: 12.3225px; stroke-linecap: round; stroke-linejoin: bevel; stroke-width: 1.75px; paint-order: fill markers;" d="M 88.952 92.858 C 88.952 92.858 96.589 101.358 99.89 106.727 C 103.747 113.001 108.744 123.489 110.048 128.605 C 110.702 131.171 110.438 134.66 110.438 134.66" bx:d="M 88.952 92.858 R 99.89 106.727 R 110.048 128.605 R 110.438 134.66 1@6e97b49e"/>
  <path style="fill: none; fill-opacity: 0; stroke: rgb(5, 4, 2); stroke-dashoffset: 12.3225px; stroke-linecap: round; stroke-linejoin: bevel; stroke-width: 1.75px; paint-order: fill markers;" d="M 90.514 89.147 C 90.514 89.147 82.719 99.835 81.92 105.946 C 81.054 112.572 86.868 121.474 86.608 127.628 C 86.412 132.278 82.896 139.739 82.896 139.739" bx:d="M 90.514 89.147 R 81.92 105.946 R 86.608 127.628 R 82.896 139.739 1@006edf33"/>
  <path style="fill: none; fill-opacity: 0; stroke: rgb(5, 4, 2); stroke-dashoffset: 12.3225px; stroke-linecap: round; stroke-linejoin: bevel; stroke-width: 1.75px; paint-order: fill markers;" d="M 88.952 89.733 C 88.952 89.733 91.963 104.697 92.272 111.415 C 92.538 117.196 90.691 123.659 91.296 127.628 C 91.665 130.052 93.444 133.293 93.444 133.293" bx:d="M 88.952 89.733 R 92.272 111.415 R 91.296 127.628 R 93.444 133.293 1@148a6175"/>
  <path style="fill: none; fill-opacity: 0; stroke: rgb(5, 4, 2); stroke-dashoffset: 12.3225px; stroke-linecap: round; stroke-linejoin: bevel; stroke-width: 1.75px; paint-order: fill markers;" d="M 90.124 92.468 C 90.124 92.468 76.871 100.523 74.497 105.75 C 72.441 110.277 75.541 117.056 74.708 121.13 C 74.116 124.022 71.567 128.214 71.567 128.214" bx:d="M 90.124 92.468 R 74.497 105.75 R 74.708 121.13 R 71.567 128.214 1@9bd3aed7"/>
  <path style="fill: none; fill-opacity: 0; stroke: rgb(5, 4, 2); stroke-dashoffset: 12.3225px; stroke-linecap: round; stroke-linejoin: bevel; stroke-width: 1.75px; paint-order: fill markers;" d="M 97.683 103.299 C 97.683 103.299 105.014 107.266 107.409 109.599 C 109.301 111.443 111.107 113.608 111.498 115.567 C 111.818 117.172 110.007 118.85 110.503 120.319 C 111.123 122.157 115.067 123.468 116.251 125.293 C 117.208 126.768 117.687 130.045 117.687 130.045" bx:d="M 97.683 103.299 R 107.409 109.599 R 111.498 115.567 R 110.503 120.319 R 116.251 125.293 R 117.687 130.045 1@c8609900"/>
  <path style="fill: none; fill-opacity: 0; stroke: rgb(5, 4, 2); stroke-dashoffset: 12.3225px; stroke-linecap: round; stroke-linejoin: bevel; stroke-width: 1.75px; paint-order: fill markers;" d="M 105.17 119.044 C 105.17 119.044 103.4179636023858 124.84157441632283 103.623 127.554 C 103.81805975408798 130.13444461125158 106.165 134.958 106.165 134.958" bx:d="M 105.17 119.044 R 103.623 127.554 R 106.165 134.958 1@cfd1a7fc"/>
  <path style="fill: none; fill-opacity: 0; stroke: rgb(5, 4, 2); stroke-dashoffset: 12.3225px; stroke-linecap: round; stroke-linejoin: bevel; stroke-width: 1.75px; paint-order: fill markers;" d="M 92.864 113.397 C 92.864 113.397 95.53557781097908 115.6097340653577 96.069 117.265 C 96.74581310458272 119.36522323629165 95.516 125.333 95.516 125.333" bx:d="M 92.864 113.397 R 96.069 117.265 R 95.516 125.333 1@aaca25e4"/>
  <path style="fill: none; fill-opacity: 0; stroke: rgb(5, 4, 2); stroke-dashoffset: 12.3225px; stroke-linecap: round; stroke-linejoin: bevel; stroke-width: 1.75px; paint-order: fill markers;" d="M 91.715 100.867 C 91.715 100.867 89.511 103.788 88.952 105.509 C 88.358 107.339 88.774 109.67 88.399 111.588 C 88.049 113.377 86.852 116.672 86.852 116.672" bx:d="M 91.715 100.867 R 88.952 105.509 R 88.399 111.588 R 86.852 116.672 1@ee6fc069"/>
  <path style="fill: none; fill-opacity: 0; stroke: rgb(5, 4, 2); stroke-dashoffset: 12.3225px; stroke-linecap: round; stroke-linejoin: bevel; stroke-width: 1.75px; paint-order: fill markers;" d="M 73.432 108.253 C 73.432 108.253 63.310523154636364 117.4692278408907 61.716 121.736 C 60.615401538490914 124.68108289846474 61.87495835499337 127.76197622802948 61.717 130.246 C 61.59308325368004 132.19469175243694 61.053 135.441 61.053 135.441" bx:d="M 73.432 108.253 R 61.716 121.736 R 61.717 130.246 R 61.053 135.441 1@4cca7570"/>
  <path style="fill: none; fill-opacity: 0; stroke: rgb(5, 4, 2); stroke-dashoffset: 12.3225px; stroke-linecap: round; stroke-linejoin: bevel; stroke-width: 1.75px; paint-order: fill markers;" d="M 67.179 114.904 C 67.179 114.904 68.294 119.996 67.843 122.198 C 67.425 124.237 64.858 127.724 64.858 127.724" bx:d="M 67.179 114.904 R 67.843 122.198 R 64.858 127.724 1@ca504883"/>
  <path style="fill: none; fill-opacity: 0; stroke: rgb(5, 4, 2); stroke-dashoffset: 12.3225px; stroke-linecap: round; stroke-linejoin: bevel; stroke-width: 1.75px; paint-order: fill markers;" d="M 90.951 93.934 L 100.39 104.957" bx:d="M 90.951 93.934 R 100.39 104.957 1@409c4479"/>
  <path style="fill: none; fill-opacity: 0; stroke: rgb(5, 4, 2); stroke-dashoffset: 12.3225px; stroke-linecap: round; stroke-linejoin: bevel; stroke-width: 1.75px; paint-order: fill markers;" d="M 92.733 93.274 L 98.542 103.043" bx:d="M 92.733 93.274 R 98.542 103.043 1@f4a08e77"/>
  <path style="fill: none; fill-opacity: 0; stroke: rgb(5, 4, 2); stroke-dashoffset: 12.3225px; stroke-linecap: round; stroke-linejoin: bevel; stroke-width: 1.75px; paint-order: fill markers;" d="M 90.951 91.822 L 92.865 107.267" bx:d="M 90.951 91.822 R 92.865 107.267 1@fe277e01"/>
  <path style="fill: none; fill-opacity: 0; stroke: rgb(5, 4, 2); stroke-dashoffset: 12.3225px; stroke-linecap: round; stroke-linejoin: bevel; stroke-width: 1.75px; paint-order: fill markers;" d="M 89.829 94.33 L 85.076 98.752" bx:d="M 89.829 94.33 R 85.076 98.752 1@16aae6fb"/>
  <path style="fill: none; fill-opacity: 0; stroke: rgb(5, 4, 2); stroke-dashoffset: 12.3225px; stroke-linecap: round; stroke-linejoin: bevel; stroke-width: 1.75px; paint-order: fill markers;" d="M 99.851 105.766 L 108.753 111.239" bx:d="M 99.851 105.766 R 108.753 111.239 1@f29ef0d3"/>
  <path style="fill: none; fill-opacity: 0; stroke: rgb(5, 4, 2); stroke-dashoffset: 12.3225px; stroke-linecap: round; stroke-linejoin: bevel; stroke-width: 1.75px; paint-order: fill markers;" d="M 93.106 108.143 L 92.055 117.488" bx:d="M 93.106 108.143 R 92.055 117.488 1@b2d60c07"/>
</svg>